<svg data-name="01_Icon" xmlns="http://www.w3.org/2000/svg" viewBox="0 0 16 16"><path d="M8 6a2 2 0 1 1-2 2 2 2 0 0 1 2-2m0-1a3 3 0 1 0 3 3 3 3 0 0 0-3-3z"/><path d="M8 1a8.14 8.14 0 0 1 .87.05l.84 1.8A5.67 5.67 0 0 1 11.8 4l2.09-.21a6.77 6.77 0 0 1 .94 1.52L13.6 6.86A5.38 5.38 0 0 1 13.73 8a5.06 5.06 0 0 1-.14 1.17l1.23 1.59a7.15 7.15 0 0 1-1 1.53l-2.1-.22a5.83 5.83 0 0 1-2 1.08l-.84 1.79A6.44 6.44 0 0 1 8 15a7.59 7.59 0 0 1-1-.08l-.86-1.84a5.81 5.81 0 0 1-1.82-1l-2.09.21a6.71 6.71 0 0 1-1-1.66L2.42 9a5.36 5.36 0 0 1-.1-1 5 5 0 0 1 .1-1L1.16 5.41a6.76 6.76 0 0 1 1-1.65L4.23 4a5.62 5.62 0 0 1 1.88-1.08L7 1.08A7.42 7.42 0 0 1 8 1m0-1a8.93 8.93 0 0 0-1.17.09l-.55.07-.23.5-.68 1.47a6.65 6.65 0 0 0-1.45.81l-1.67-.17-.55-.06-.34.43A8.13 8.13 0 0 0 .22 5L0 5.56.35 6l1 1.29a5.32 5.32 0 0 0 0 .69 6.06 6.06 0 0 0 0 .73L.36 10l-.36.47.24.53a7.59 7.59 0 0 0 1.15 1.9l.34.42.55-.05L4 13.09a6.19 6.19 0 0 0 1.38.77L6 15.34l.23.49.55.08A9.09 9.09 0 0 0 8 16a9.37 9.37 0 0 0 1-.06l.57-.07.23-.51.69-1.36a6.59 6.59 0 0 0 1.57-.84l1.69.17.55.06.35-.42a7.71 7.71 0 0 0 1.09-1.75l.25-.55-.37-.47-.95-1.23a5.79 5.79 0 0 0 .07-.97 5.22 5.22 0 0 0-.07-.88l1-1.25.33-.47-.24-.54a8.21 8.21 0 0 0-1.08-1.74l-.35-.42h-.55l-1.67.17A7 7 0 0 0 10.47 2L9.82.63 9.58.12 9 .06A8.88 8.88 0 0 0 8 0z"/></svg>