<svg data-name="01_Icon" xmlns="http://www.w3.org/2000/svg" viewBox="0 0 16 16"><path d="M10.77 8.67a4.24 4.24 0 0 0-1.36 2.95H6.59a4.25 4.25 0 0 0-1.37-2.95 3.28 3.28 0 0 1-1.12-2.3C4.1 4.36 5.72 3 8 3s3.89 1.41 3.89 3.42a3.32 3.32 0 0 1-1.16 2.3M8 2C5.07 2 3 3.84 3 6.37a4.16 4.16 0 0 0 1.35 2.88 3.38 3.38 0 0 1 1.14 2.37 1.17 1.17 0 0 0 .35.87v.56c0 .13.55.47.55.47v.24a.26.26 0 0 0 .27.24H9.4a.27.27 0 0 0 .28-.24v-.24s.55-.34.55-.47v-.64a1.19 1.19 0 0 0 .26-.79 3.39 3.39 0 0 1 1.15-2.37A4.17 4.17 0 0 0 13 6.37C13 3.84 11 2 8 2"/></svg>