<svg data-name="01_Icon" xmlns="http://www.w3.org/2000/svg" viewBox="0 0 16 16"><path d="M9.629-.002l6.364 6.364-.707.707L8.922.705zM1.86 7.778l6.364 6.364-.707.707-6.364-6.364zm5.652-5.657l2.121 2.122-.707.707-2.121-2.122zm4.24 4.237l2.121 2.12-.707.708-2.121-2.121z"/><path d="M9.636 0l.707.708-2.828 2.828-.707-.707zM2.567 7.07l.708.708L1.86 9.192l-.707-.707zm5.65 5.655l.708.707-1.415 1.415-.707-.708z"/><path d="M5.39 7.07H2.56v1h3.25l1-1H5.39zm3.54 3.54v2.83h-1v-3.25l1-1v1.42zm-4.6.346l.707.708L.71 15.99l-.707-.707z"/><path d="M11.752 6.364l.707.707-3.535 3.535-.707-.707zm-2.83-2.833l.707.707-3.535 3.536-.707-.707zm6.374 2.12l.707.707-2.828 2.829-.707-.707z"/></svg>