<svg data-name="01_Icon" xmlns="http://www.w3.org/2000/svg" viewBox="0 0 16 16"><path d="M13.42 5.61c0 3.15-1.75 5.51-4.33 5.51a2.3 2.3 0 0 1-2-1s-.43 1.88-.53 2.2A8.66 8.66 0 0 1 5.11 15 .1.1 0 0 1 5 15a.08.08 0 0 1 0-.06 9 9 0 0 1 0-3.06c.15-.65 1-4.37 1-4.37a3.14 3.14 0 0 1-.28-1.31c0-1.19.69-2.08 1.55-2.08a1.09 1.09 0 0 1 1.09 1.06.76.76 0 0 1 0 .15 16.5 16.5 0 0 1-.71 2.85 1.24 1.24 0 0 0 .9 1.51 1.55 1.55 0 0 0 .37 0c1.52 0 2.55-2 2.55-4.27a3 3 0 0 0-3.36-3.04A3.8 3.8 0 0 0 4.16 6v.2a2.26 2.26 0 0 0 .53 1.6.39.39 0 0 1 .11.45c0 .15-.12.5-.16.64a.27.27 0 0 1-.32.23h-.08A3.1 3.1 0 0 1 2.59 6c0-2.29 1.93-5 5.75-5a4.8 4.8 0 0 1 5.08 4.5z" data-name="Flat copy"/></svg>